:SAMPLES-PER-SECOND 30
:FULLY-SPECIFIED
:DEGREES
288
root  -40.2915 34.7979 4.29557 -147.678 88.4384 -158.948
RightUpLeg  -7.38539 -17.7755 -1.04417
RightLeg  3.63385 -2.11165 0.00280649
RightFoot  5.44271 0.0263296 -0.0325306
RightToes  -29.0943 -0.135317 -0.241576
Spine  -2.00368 -0.0709433 1.06583
Spine1  -4.042 0.00880222 2.81075
HEad  -70.9984 0.982759 5.04882
LeftShoulder1  -1.94126e-019 -3.10601e-018 -2.51263e-017
LeftArm  -5.70654 24.8465 -82.6537
LeftForeArm  24.3652 -27.0977 -4.49601
LeftHand  -0.247231 -0.132701 5.25548
RightShoulder  -4.96962e-017 0 -2.36833e-017
RightArm  -19.0238 -22.9793 76.682
RightForeArm  43.5605 23.4941 2.7426
RightHand  -0.132294 -2.02145 -4.25335
LeftUpLeg  -7.63627 7.20333 4.59339
LeftLeg  4.08408 12.9411 0.0895261
LeftFoot  7.8499 -0.122429 1.94582
LeftToes  -29.9683 2.40056e-006 -7.68412e-008
289
root  -40.0806 34.8016 4.365 -142.862 88.5421 -153.852
RightUpLeg  -6.75748 -16.911 -1.05364
RightLeg  3.66016 -2.83071 0.00222499
RightFoot  5.14651 0.0280868 -0.0813979
RightToes  -28.5252 -0.133899 -0.240303
Spine  -2.16318 -0.0436509 1.0712
Spine1  -4.35373 0.0782593 2.82544
HEad  -75.5064 0.873382 6.88975
LeftShoulder1  -1.94126e-019 -3.10601e-018 -2.51263e-017
LeftArm  -5.80056 25.3145 -81.7943
LeftForeArm  22.3526 -32.8378 -5.96012
LeftHand  -0.233094 -0.0220782 5.04639
RightShoulder  -4.96962e-017 0 -2.36833e-017
RightArm  -18.076 -23.5832 76.5131
RightForeArm  42.0555 29.8545 4.15078
RightHand  -0.120642 -2.28662 -4.1292
LeftUpLeg  -7.11048 6.71978 4.86553
LeftLeg  4.36795 13.5483 0.160144
LeftFoot  7.57939 -0.119987 1.97282
LeftToes  -29.9842 2.40056e-006 -7.68412e-008
290
root  -39.8359 34.8003 4.44025 -134.384 88.6805 -144.685
RightUpLeg  -5.87542 -16.0407 -1.12382
RightLeg  4.08488 -3.4979 -0.0232517
RightFoot  4.70345 0.0268991 -0.109075
RightToes  -28.1401 -0.131326 -0.238834
Spine  -2.22092 0.00717274 1.11981
Spine1  -4.45501 0.204205 2.92035
HEad  -79.3122 0.814483 8.08415
LeftShoulder1  -1.94126e-019 -3.10601e-018 -2.51263e-017
LeftArm  -4.51203 24.6122 -80.8121
LeftForeArm  22.5178 -38.7803 -7.5804
LeftHand  -0.240868 -0.0189122 5.21719
RightShoulder  -4.96962e-017 0 -2.36833e-017
RightArm  -16.616 -23.2356 76.1501
RightForeArm  41.4378 36.7787 5.85221
RightHand  -0.121306 -2.50247 -4.42791
LeftUpLeg  -6.23363 6.13935 5.21366
LeftLeg  4.91537 14.2962 0.303978
LeftFoot  7.18028 -0.114223 1.98193
LeftToes  -29.963 2.40056e-006 -7.68412e-008
291
root  -39.5758 34.8009 4.50527 -122.18 88.9155 -131.736
RightUpLeg  -5.00471 -15.0056 -1.28235
RightLeg  4.64936 -4.21206 -0.0695086
RightFoot  4.19886 0.0265716 -0.126056
RightToes  -27.7734 -0.128779 -0.236197
Spine  -2.33516 0.0811234 1.13021
Spine1  -4.65538 0.377203 2.94176
HEad  -82.435 0.812089 8.91226
LeftShoulder1  -1.94126e-019 -3.10601e-018 -2.51263e-017
LeftArm  -3.43737 23.1804 -79.9177
LeftForeArm  23.9197 -44.9696 -9.53085
LeftHand  -0.256843 0.0351552 5.61343
RightShoulder  -4.96962e-017 0 -2.36833e-017
RightArm  -15.5023 -22.3311 75.8864
RightForeArm  41.3501 44.0408 7.98107
RightHand  -0.109381 -3.01309 -4.68127
LeftUpLeg  -5.4075 5.89015 5.43703
LeftLeg  5.74062 14.8639 0.52756
LeftFoot  6.71987 -0.104619 1.94341
LeftToes  -29.7527 2.40056e-006 -7.68412e-008
292
root  -39.3271 34.8046 4.56634 -113.801 88.9995 -122.37
RightUpLeg  -3.88889 -13.9555 -1.47228
RightLeg  5.21536 -5.09031 -0.134262
RightFoot  3.76706 0.0269397 -0.148251
RightToes  -27.5377 -0.126291 -0.23332
Spine  -2.4622 0.119961 1.14153
Spine1  -4.86479 0.475547 2.97153
HEad  -85.1541 0.592094 9.36892
LeftShoulder1  -1.94126e-019 -3.10601e-018 -2.51263e-017
LeftArm  -2.55247 21.0319 -79.0877
LeftForeArm  25.2367 -51.2521 -12.0615
LeftHand  -0.250462 0.276324 5.70744
RightShoulder  -4.96962e-017 0 -2.36833e-017
RightArm  -14.3061 -20.9445 75.5299
RightForeArm  41.6034 51.5178 10.8169
RightHand  -0.0933577 -3.49313 -4.74476
LeftUpLeg  -4.61468 5.45178 5.66332
LeftLeg  7.00293 15.4598 0.885251
LeftFoot  6.24947 -0.0947931 1.89785
LeftToes  -29.5137 2.40056e-006 -7.68412e-008
293
root  -39.0842 34.8094 4.62763 -110.289 89.0149 -117.871
RightUpLeg  -2.75895 -13.4788 -1.63318
RightLeg  5.73518 -5.54846 -0.196617
RightFoot  3.35473 0.0253487 -0.138101
RightToes  -27.0483 -0.124132 -0.230415
Spine  -2.67594 0.0969346 1.15664
Spine1  -5.2339 0.440538 3.0206
HEad  -86.9219 0.103944 9.23109
LeftShoulder1  -1.94126e-019 -3.10601e-018 -2.51263e-017
LeftArm  -2.18892 18.775 -78.347
LeftForeArm  27.3483 -57.983 -15.7413
LeftHand  -0.262234 0.27738 5.97802
RightShoulder  -4.96962e-017 0 -2.36833e-017
RightArm  -13.2186 -19.3712 75.0905
RightForeArm  43.6114 59.3556 14.9794
RightHand  -0.0922825 -3.6029 -4.94047
LeftUpLeg  -3.97567 5.1702 5.87167
LeftLeg  8.46751 15.8926 1.31217
LeftFoot  5.89404 -0.0873099 1.85742
LeftToes  -29.4214 2.40056e-006 -7.68412e-008
294
root  -38.8334 34.8057 4.68385 -103.122 89.1161 -109.79
RightUpLeg  -1.60335 -12.909 -1.84328
RightLeg  6.06645 -5.99338 -0.246978
RightFoot  2.95109 0.0236209 -0.122033
RightToes  -26.6527 -0.122648 -0.228042
Spine  -2.94834 0.0805255 1.11683
Spine1  -5.70557 0.4239 2.95826
HEad  -87.8529 -0.269178 9.33595
LeftShoulder1  -1.94126e-019 -3.10601e-018 -2.51263e-017
LeftArm  -1.86973 16.5272 -77.4269
LeftForeArm  32.7292 -65.6227 -22.1435
LeftHand  -0.279456 0.346747 6.4529
RightShoulder  -4.96962e-017 0 -2.36833e-017
RightArm  -11.9134 -17.6084 74.3954
RightForeArm  48.6079 67.6 22.2908
RightHand  -0.0957569 -3.52626 -4.97833
LeftUpLeg  -3.27825 5.42956 6.01765
LeftLeg  9.70509 15.9122 1.65569
LeftFoot  5.61084 -0.0797482 1.78887
LeftToes  -29.4732 2.40056e-006 -7.68412e-008
295
root  -38.5945 34.7966 4.72858 -82.1282 89.3359 -88.1024
RightUpLeg  -0.704551 -12.5791 -2.17052
RightLeg  6.38311 -6.04112 -0.282315
RightFoot  2.51201 0.0202933 -0.0795213
RightToes  -26.4996 -0.121609 -0.226916
Spine  -3.26944 0.119511 1.03994
Spine1  -6.25572 0.537945 2.81065
HEad  -88.6616 -0.553143 9.28047
LeftShoulder1  -1.94126e-019 -3.10601e-018 -2.51263e-017
LeftArm  -1.75831 14.0331 -76.3864
LeftForeArm  44.4144 -73.5559 -35.787
LeftHand  -0.298564 0.516133 7.11872
RightShoulder  -4.96962e-017 0 -2.36833e-017
RightArm  -11.0752 -15.3365 73.4445
RightForeArm  62.0015 75.5865 38.2366
RightHand  -0.107706 -3.19999 -4.95268
LeftUpLeg  -2.63152 5.60173 6.01259
LeftLeg  10.6722 15.9619 1.92975
LeftFoot  5.54104 -0.0780471 1.78552
LeftToes  -29.9543 2.40056e-006 -7.68412e-008
296
root  -38.3708 34.7809 4.78485 -48.9955 89.2548 -54.3656
RightUpLeg  0.160417 -12.172 -2.34066
RightLeg  6.50681 -6.06811 -0.296673
RightFoot  2.15776 0.0177589 -0.0451476
RightToes  -26.304 -0.120423 -0.225737
Spine  -3.59062 0.194636 0.994999
Spine1  -6.78423 0.721644 2.73048
HEad  -89.6342 -0.783847 9.09206
LeftShoulder1  -1.94126e-019 -3.10601e-018 -2.51263e-017
LeftArm  -1.75586 10.9745 -75.2491
LeftForeArm  77.3235 -79.5371 -70.5285
LeftHand  -0.328472 0.483114 7.78722
RightShoulder  -4.96962e-017 0 -2.36833e-017
RightArm  -11.107 -12.4475 72.3752
RightForeArm  102.636 80.7658 79.975
RightHand  -0.141392 -2.89486 -6.01152
LeftUpLeg  -2.08136 5.90635 6.17809
LeftLeg  11.6869 15.7999 2.19123
LeftFoot  5.47124 -0.0752505 1.76134
LeftToes  -30.9525 2.40056e-006 -7.68412e-008
297
root  -38.1837 34.7614 4.83612 -26.1328 88.9586 -30.925
RightUpLeg  0.781662 -11.6056 -2.49297
RightLeg  6.92984 -6.17511 -0.347506
RightFoot  1.71832 0.0147972 -0.00185396
RightToes  -26.1774 -0.118504 -0.224538
Spine  -3.91598 0.241927 0.929196
Spine1  -7.31209 0.847561 2.61498
HEad  -90.6575 -0.64138 9.30165
LeftShoulder1  -1.94126e-019 -3.10601e-018 -2.51263e-017
LeftArm  -2.00105 7.22322 -74.0771
LeftForeArm  129.656 -78.1935 -123.419
LeftHand  -0.388265 0.149726 8.65512
RightShoulder  -4.96962e-017 0 -2.36833e-017
RightArm  -12.057 -8.59221 71.4743
RightForeArm  151.609 78.255 129.551
RightHand  -0.160021 -3.36442 -8.43176
LeftUpLeg  -1.62229 6.00748 6.28794
LeftLeg  12.7785 15.8531 2.5027
LeftFoot  5.41178 -0.0744233 1.76354
LeftToes  -31.7593 2.40056e-006 -7.68412e-008
298
root  -38.0308 34.736 4.88727 -12.569 88.6037 -16.883
RightUpLeg  1.14094 -10.877 -2.67055
RightLeg  7.5595 -6.31193 -0.424665
RightFoot  1.10664 0.0103899 0.06453
RightToes  -25.6186 -0.114943 -0.223324
Spine  -4.28589 0.26731 0.844736
Spine1  -7.93895 0.929458 2.46863
HEad  -90.9856 -0.698192 9.27064
LeftShoulder1  -1.94126e-019 -3.10601e-018 -2.51263e-017
LeftArm  -2.74021 2.7938 -73.2653
LeftForeArm  153.079 -71.5795 -148.204
LeftHand  -0.479472 -0.155948 10.1203
RightShoulder  -4.96962e-017 0 -2.36833e-017
RightArm  -13.8251 -4.04614 70.9127
RightForeArm  172.418 72.3124 150.004
RightHand  -0.167031 -3.88289 -11.8745
LeftUpLeg  -1.40272 6.31126 6.33598
LeftLeg  13.9959 15.7919 2.8334
LeftFoot  5.30555 -0.0723411 1.74153
LeftToes  -32.5851 2.40056e-006 -7.68412e-008
